<svg width="1200" height="600" viewBox="0 0 1200 600" xmlns="http://www.w3.org/2000/svg">
  <defs>
    <linearGradient id="skyGradient" x1="0%" y1="0%" x2="0%" y2="100%">
      <stop offset="0%" style="stop-color:#1e3a8a;stop-opacity:1" />
      <stop offset="100%" style="stop-color:#3b82f6;stop-opacity:1" />
    </linearGradient>
    <linearGradient id="buildingGradient" x1="0%" y1="0%" x2="0%" y2="100%">
      <stop offset="0%" style="stop-color:#374151;stop-opacity:1" />
      <stop offset="100%" style="stop-color:#1f2937;stop-opacity:1" />
    </linearGradient>
    <linearGradient id="smokeGradient" x1="0%" y1="100%" x2="0%" y2="0%">
      <stop offset="0%" style="stop-color:#9ca3af;stop-opacity:0.8" />
      <stop offset="100%" style="stop-color:#e5e7eb;stop-opacity:0.3" />
    </linearGradient>
  </defs>
  
  <!-- Sky Background -->
  <rect width="1200" height="600" fill="url(#skyGradient)"/>
  
  <!-- Mountains Background -->
  <polygon points="0,400 200,300 400,350 600,280 800,320 1000,290 1200,340 1200,600 0,600" fill="#4b5563" opacity="0.6"/>
  
  <!-- Factory Buildings -->
  <rect x="50" y="350" width="120" height="250" fill="url(#buildingGradient)"/>
  <rect x="200" y="300" width="150" height="300" fill="url(#buildingGradient)"/>
  <rect x="380" y="320" width="100" height="280" fill="url(#buildingGradient)"/>
  <rect x="510" y="280" width="180" height="320" fill="url(#buildingGradient)"/>
  <rect x="720" y="340" width="130" height="260" fill="url(#buildingGradient)"/>
  <rect x="880" y="310" width="160" height="290" fill="url(#buildingGradient)"/>
  
  <!-- Smokestacks -->
  <rect x="120" y="250" width="20" height="100" fill="#6b7280"/>
  <rect x="260" y="200" width="25" height="100" fill="#6b7280"/>
  <rect x="420" y="220" width="20" height="100" fill="#6b7280"/>
  <rect x="580" y="180" width="30" height="100" fill="#6b7280"/>
  <rect x="780" y="240" width="22" height="100" fill="#6b7280"/>
  <rect x="950" y="210" width="28" height="100" fill="#6b7280"/>
  
  <!-- Smoke -->
  <ellipse cx="130" cy="240" rx="15" ry="30" fill="url(#smokeGradient)"/>
  <ellipse cx="272" cy="190" rx="18" ry="35" fill="url(#smokeGradient)"/>
  <ellipse cx="430" cy="210" rx="16" ry="32" fill="url(#smokeGradient)"/>
  <ellipse cx="595" cy="170" rx="20" ry="40" fill="url(#smokeGradient)"/>
  <ellipse cx="791" cy="230" rx="17" ry="33" fill="url(#smokeGradient)"/>
  <ellipse cx="964" cy="200" rx="19" ry="38" fill="url(#smokeGradient)"/>
  
  <!-- Windows on buildings -->
  <rect x="70" y="380" width="15" height="20" fill="#fbbf24" opacity="0.8"/>
  <rect x="100" y="380" width="15" height="20" fill="#fbbf24" opacity="0.8"/>
  <rect x="130" y="380" width="15" height="20" fill="#fbbf24" opacity="0.8"/>
  
  <rect x="220" y="330" width="18" height="25" fill="#fbbf24" opacity="0.8"/>
  <rect x="250" y="330" width="18" height="25" fill="#fbbf24" opacity="0.8"/>
  <rect x="280" y="330" width="18" height="25" fill="#fbbf24" opacity="0.8"/>
  <rect x="310" y="330" width="18" height="25" fill="#fbbf24" opacity="0.8"/>
  
  <!-- Industrial equipment silhouettes -->
  <rect x="400" y="500" width="40" height="100" fill="#374151"/>
  <rect x="600" y="480" width="35" height="120" fill="#374151"/>
  <rect x="800" y="520" width="30" height="80" fill="#374151"/>
  
  <!-- Cranes -->
  <line x1="300" y1="200" x2="350" y2="150" stroke="#6b7280" stroke-width="4"/>
  <line x1="350" y1="150" x2="400" y2="180" stroke="#6b7280" stroke-width="4"/>
  <line x1="350" y1="150" x2="350" y2="600" stroke="#6b7280" stroke-width="6"/>
  
  <line x1="900" y1="180" x2="950" y2="130" stroke="#6b7280" stroke-width="4"/>
  <line x1="950" y1="130" x2="1000" y2="160" stroke="#6b7280" stroke-width="4"/>
  <line x1="950" y1="130" x2="950" y2="600" stroke="#6b7280" stroke-width="6"/>
</svg>