<svg width="400" height="400" xmlns="http://www.w3.org/2000/svg">
  <!-- Manufacturing Icon -->
  <g id="manufacturing" transform="translate(50, 50)">
    <circle cx="50" cy="50" r="45" fill="#3498db" opacity="0.1"/>
    <rect x="20" y="30" width="60" height="40" fill="none" stroke="#3498db" stroke-width="3"/>
    <rect x="25" y="35" width="50" height="30" fill="#3498db" opacity="0.3"/>
    <circle cx="30" cy="50" r="3" fill="#3498db"/>
    <circle cx="50" cy="50" r="3" fill="#3498db"/>
    <circle cx="70" cy="50" r="3" fill="#3498db"/>
  </g>
  
  <!-- Quality Control Icon -->
  <g id="quality" transform="translate(250, 50)">
    <circle cx="50" cy="50" r="45" fill="#2ecc71" opacity="0.1"/>
    <circle cx="50" cy="50" r="25" fill="none" stroke="#2ecc71" stroke-width="3"/>
    <path d="M 40 50 L 47 57 L 60 40" fill="none" stroke="#2ecc71" stroke-width="3"/>
  </g>
  
  <!-- Engineering Icon -->
  <g id="engineering" transform="translate(50, 250)">
    <circle cx="50" cy="50" r="45" fill="#e74c3c" opacity="0.1"/>
    <rect x="25" y="25" width="50" height="50" fill="none" stroke="#e74c3c" stroke-width="3"/>
    <line x1="35" y1="35" x2="65" y2="65" stroke="#e74c3c" stroke-width="2"/>
    <line x1="65" y1="35" x2="35" y2="65" stroke="#e74c3c" stroke-width="2"/>
  </g>
  
  <!-- Construction Icon -->
  <g id="construction" transform="translate(250, 250)">
    <circle cx="50" cy="50" r="45" fill="#f39c12" opacity="0.1"/>
    <polygon points="50,25 70,70 30,70" fill="none" stroke="#f39c12" stroke-width="3"/>
    <line x1="40" y1="60" x2="60" y2="60" stroke="#f39c12" stroke-width="3"/>
  </g>
</svg>